<?xml version="1.0" encoding="UTF-8" standalone="no"?>
<svg width="189px" height="85px" viewBox="0 0 189 85" version="1.1" xmlns="http://www.w3.org/2000/svg" xmlns:xlink="http://www.w3.org/1999/xlink">
    <!-- Generator: Sketch 3.8.3 (29802) - http://www.bohemiancoding.com/sketch -->
    <title>Group</title>
    <desc>Created with Sketch.</desc>
    <defs>
        <radialGradient cx="50%" cy="62.0944437%" fx="50%" fy="62.0944437%" r="83.4815162%" id="radialGradient-1">
            <stop stop-color="#6C625E" offset="0%"></stop>
            <stop stop-color="#2B211F" offset="100%"></stop>
        </radialGradient>
        <polygon id="path-2" points="89.5 0 179 39.5 89.5 79 0 39.5"></polygon>
        <linearGradient x1="50%" y1="18.8711686%" x2="50%" y2="144.501036%" id="linearGradient-4">
            <stop stop-color="#888177" offset="0%"></stop>
            <stop stop-color="#FDF9F8" offset="100%"></stop>
        </linearGradient>
        <linearGradient x1="50%" y1="0%" x2="50%" y2="54.4340283%" id="linearGradient-5">
            <stop stop-color="#888177" offset="0%"></stop>
            <stop stop-color="#FDF9F8" offset="100%"></stop>
        </linearGradient>
    </defs>
    <g id="SVG-export" stroke="none" stroke-width="1" fill="none" fill-rule="evenodd">
        <g id="IG-logo" transform="translate(-2.000000, -1.000000)">
            <g id="Group" transform="translate(7.000000, 4.000000)">
                <g id="IHAROS">
                    <mask id="mask-3" fill="white">
                        <use xlink:href="#path-2"></use>
                    </mask>
                    <use id="Mask" stroke="#979797" stroke-width="4" fill="url(#radialGradient-1)" xlink:href="#path-2"></use>
                    <path d="M24.2015307,26.5248743 L24.2015307,27.4116379 C25.4144673,27.4116379 26.2825363,27.5771655 26.8057638,27.9082256 C27.3289914,28.2629328 27.5906012,28.9013963 27.5906012,29.8236351 L27.5906012,49.6516703 C27.5906012,50.408379 27.3289914,50.9522553 26.8057638,51.2833154 C26.2825363,51.6143755 25.4144673,51.779903 24.2015307,51.779903 L24.2015307,52.7021372 L33.2271605,52.7021372 L33.2271605,51.779903 C31.9904409,51.779903 31.1104805,51.6143755 30.587253,51.2833154 C30.0878085,50.9522553 29.83809,50.408379 29.83809,49.6516703 L29.83809,29.8236351 C29.83809,28.9013963 30.0878085,28.2629328 30.587253,27.9082256 C31.0866974,27.5771655 31.9666578,27.4116379 33.2271605,27.4116379 L33.2271605,26.5248743 L24.2015307,26.5248743 Z M34.8639031,52.7021372 L43.2473932,52.7021372 L43.2473932,51.779903 C42.1058059,51.779903 41.309085,51.6025521 40.8572067,51.2478448 C40.4291114,50.8931376 40.215067,50.2901443 40.215067,49.438847 L40.215067,39.6135057 L54.4848374,39.6135057 L54.4848374,49.438847 C54.4848374,50.2664972 54.2232276,50.8694904 53.7000001,51.2478448 C53.2243387,51.6025521 52.4751832,51.779903 51.4525112,51.779903 L51.4525112,52.7021372 L59.8003269,52.7021372 L59.8003269,51.779903 C58.6825226,51.779903 57.8976931,51.6025521 57.4458148,51.2478448 C56.9701534,50.8694904 56.7323263,50.2664972 56.7323263,49.438847 L56.7323263,29.5398707 C56.7323263,28.8068091 56.9701534,28.2747562 57.4458148,27.9436961 C57.9214762,27.5889889 58.7063057,27.4116379 59.8003269,27.4116379 L59.8003269,26.5248743 L51.4525112,26.5248743 L51.4525112,27.4116379 C52.4514001,27.4116379 53.2005556,27.5889889 53.7000001,27.9436961 C54.2232276,28.2747562 54.4848374,28.8068091 54.4848374,29.5398707 L54.4848374,38.7267421 L40.215067,38.7267421 L40.215067,29.5398707 C40.215067,28.8068091 40.4410028,28.2747562 40.8928811,27.9436961 C41.3685425,27.5889889 42.153372,27.4116379 43.2473932,27.4116379 L43.2473932,26.5248743 L34.8639031,26.5248743 L34.8639031,27.4116379 C36.0054905,27.4116379 36.8141027,27.5889889 37.2897641,27.9436961 C37.6940763,28.2511091 37.8962293,28.7831619 37.8962293,29.5398707 L37.8962293,49.438847 C37.8962293,50.2901443 37.6702936,50.8931376 37.2184152,51.2478448 C36.79032,51.6025521 36.0054905,51.779903 34.8639031,51.779903 L34.8639031,52.7021372 Z M73.7804209,25.921875 L71.7469787,26.7376976 L64.1126515,48.0554957 C63.5418578,49.6398547 63.0067468,50.6684902 62.5073023,51.1414332 C62.0316409,51.5670819 61.2824855,51.779903 60.2598135,51.779903 L60.2598135,52.7021372 L68.2152105,52.7021372 L68.2152105,51.779903 C66.5741787,51.779903 65.5396307,51.5670819 65.1115354,51.1414332 C64.6596571,50.6921374 64.6596571,49.8053826 65.1115354,48.4811422 L67.0736288,43.1605603 L78.0970265,43.1605603 L80.4515386,49.3324353 C80.8082846,50.3019684 80.7250452,50.9640787 80.2018176,51.3187859 C79.7499393,51.6261989 78.739174,51.779903 77.1694914,51.779903 L77.1694914,52.7021372 L86.4448422,52.7021372 L86.4448422,51.779903 C85.4221702,51.779903 84.649232,51.5907287 84.1260045,51.2123743 C83.5314277,50.8340199 83.0795562,50.1600863 82.7703763,49.1905532 L73.7804209,25.921875 Z M72.4604672,28.3338721 L77.6689334,42.096444 L67.4303731,42.096444 L72.4604672,28.3338721 Z M86.9043287,52.7021372 L96.2153539,52.7021372 L96.2153539,51.779903 C94.9310682,51.779903 94.0273251,51.5670819 93.5040976,51.1414332 C92.98087,50.7394317 92.7192602,50.0891448 92.7192602,49.1905532 L92.7192602,39.6844468 L97.7850287,39.6844468 L104.991263,52.7021372 L109.950008,52.7021372 L109.950008,51.779903 C108.927336,51.779903 108.154398,51.661669 107.63117,51.4251976 C107.036594,51.1887261 106.560939,50.739437 106.204193,50.0773168 L100.282238,39.6135057 C102.612979,39.4716229 104.408574,38.762219 105.669077,37.485273 C106.834447,36.3029155 107.417124,34.8013441 107.417124,32.9805136 C107.417124,31.0650946 106.67986,29.528053 105.205309,28.3693427 C103.65941,27.1633381 101.518966,26.5603448 98.7839126,26.5603448 L86.9043287,26.5603448 L86.9043287,27.482579 C88.2599637,27.482579 89.1874895,27.6362832 89.686934,27.9436961 C90.1863784,28.2511091 90.4360969,28.8186321 90.4360969,29.6462823 L90.4360969,49.1905532 C90.4360969,50.112792 90.1863784,50.7630788 89.686934,51.1414332 C89.1637064,51.5670819 88.2361806,51.779903 86.9043287,51.779903 L86.9043287,52.7021372 Z M92.7192602,38.7622126 L92.7192602,29.6462823 C92.7192602,28.8659264 92.945196,28.2984034 93.3970743,27.9436961 C93.8013865,27.6362832 94.4673024,27.482579 95.3948421,27.482579 L98.6412149,27.482579 C100.591427,27.482579 102.11352,27.9673383 103.207541,28.9368714 C104.325346,29.9064045 104.884239,31.2542718 104.884239,32.9805136 C104.884239,34.6121669 104.479933,35.9363874 103.671309,36.9532148 C102.719986,38.1592194 101.316806,38.7622126 99.4617267,38.7622126 L92.7192602,38.7622126 Z M122.146381,25.921875 C118.555137,25.921875 115.713103,27.3406827 113.620193,30.1783405 C111.74133,32.7558797 110.801913,35.9009034 110.801913,39.6135057 C110.801913,43.302461 111.74133,46.4238378 113.620193,48.9777299 C115.713103,51.8390349 118.555137,53.2696659 122.146381,53.2696659 C125.85654,53.2696659 128.781813,51.8390349 130.922289,48.9777299 C132.848718,46.447485 133.811918,43.3261081 133.811918,39.6135057 C133.811918,35.8772562 132.848718,32.7322326 130.922289,30.1783405 C128.781813,27.3406827 125.85654,25.921875 122.146381,25.921875 L122.146381,25.921875 Z M122.146381,26.8441092 C125.071698,26.8441092 127.378621,28.1801531 129.067219,30.8522809 C130.565553,33.2169958 131.314708,36.1491983 131.314708,39.6489763 C131.314708,43.10146 130.565553,46.0100157 129.067219,48.3747306 C127.378621,51.0232113 125.071698,52.3474318 122.146381,52.3474318 C119.339978,52.3474318 117.116295,51.0232113 115.475263,48.3747306 C114.000713,45.9863686 113.263449,43.0778129 113.263449,39.6489763 C113.263449,36.1728454 114.000713,33.2406429 115.475263,30.8522809 C117.116295,28.1801531 119.339978,26.8441092 122.146381,26.8441092 L122.146381,26.8441092 Z M136.661591,45.9272629 L135.912428,46.2819684 L138.480987,53.1632543 C138.885299,52.8558414 139.325279,52.60755 139.800941,52.4183728 C140.300385,52.2055485 140.752257,52.0991379 141.156569,52.0991379 C141.275484,52.0991379 141.465746,52.1227847 141.72736,52.170079 C141.893841,52.2173733 142.179234,52.3001371 142.583546,52.4183728 C143.39217,52.6548443 144.034303,52.8321953 144.509965,52.950431 C145.366155,53.1396082 146.162876,53.2341954 146.900151,53.2341954 C149.397374,53.2341954 151.38323,52.6548489 152.857781,51.4961386 C154.522595,50.2191926 155.35499,48.3629193 155.35499,45.9272629 C155.35499,43.7990195 154.47503,42.1082737 152.715083,40.8549749 C151.407014,39.9090889 149.302244,39.0578043 146.400709,38.3010955 C144.046186,37.6153282 142.321939,36.8822776 141.227918,36.1019217 C139.729584,35.0378 138.980429,33.6426391 138.980429,31.9163973 C138.980429,30.1665083 139.551214,28.8541112 140.692801,27.9791667 C141.69169,27.2224579 143.011631,26.8441092 144.652663,26.8441092 C146.65044,26.8441092 148.469818,27.435279 150.11085,28.6176365 C151.537834,29.6344639 152.833992,31.1242119 153.999362,33.0869253 L154.570153,32.7322198 L152.179966,26.1346983 L150.396245,26.8441092 C150.182197,26.9150506 149.920588,26.926874 149.611408,26.8795797 C149.421143,26.8322854 149.076294,26.7376983 148.576849,26.5958154 C147.910923,26.382991 147.375812,26.2292869 146.9715,26.1346983 C146.258008,25.9928154 145.544527,25.921875 144.831035,25.921875 C142.119765,25.921875 140.06256,26.6431022 138.659359,28.0855783 C137.541555,29.2679357 136.982661,30.7458604 136.982661,32.5193966 C136.982661,34.6239928 137.874513,36.3502088 139.658243,37.6980963 C140.942529,38.6439822 142.868928,39.5070902 145.4375,40.2874461 C148.434167,41.1387435 150.443806,41.9427345 151.466478,42.6994432 C152.679414,43.5980349 153.285874,44.910432 153.285874,46.6366739 C153.285874,48.6230344 152.655632,50.100959 151.395129,51.0704921 C150.301108,51.9217895 148.755231,52.3474318 146.757454,52.3474318 C144.426713,52.3474318 142.333834,51.6498513 140.478755,50.2546695 C139.12312,49.2378421 137.850745,47.7953877 136.661591,45.9272629 L136.661591,45.9272629 Z" stroke="url(#linearGradient-5)" fill="url(#linearGradient-4)" mask="url(#mask-3)"></path>
                </g>
                <polygon id="Polygon-1" stroke="url(#linearGradient-5)" stroke-linecap="round" stroke-linejoin="round" points="89.5 0 179 39.5 89.5 79 0 39.5"></polygon>
            </g>
        </g>
    </g>
</svg>